<svg width="58" height="58" viewBox="0 0 58 58" fill="none" xmlns="http://www.w3.org/2000/svg">
<g clip-path="url(#clip0_1_35)">
<path d="M51.9583 9.66666H46.7222V12.8889H51.5556V48.3333H6.44444V12.8889H11.2778V9.66666H6.04166C5.66504 9.67295 5.29335 9.75338 4.94782 9.90334C4.60229 10.0533 4.28969 10.2699 4.02787 10.5407C3.76605 10.8115 3.56014 11.1312 3.42191 11.4816C3.28367 11.832 3.21581 12.2062 3.22222 12.5828V48.6394C3.21581 49.0161 3.28367 49.3902 3.42191 49.7406C3.56014 50.091 3.76605 50.4107 4.02787 50.6815C4.28969 50.9523 4.60229 51.1689 4.94782 51.3189C5.29335 51.4688 5.66504 51.5493 6.04166 51.5555H51.9583C52.3349 51.5493 52.7066 51.4688 53.0522 51.3189C53.3977 51.1689 53.7103 50.9523 53.9721 50.6815C54.2339 50.4107 54.4398 50.091 54.5781 49.7406C54.7163 49.3902 54.7842 49.0161 54.7778 48.6394V12.5828C54.7842 12.2062 54.7163 11.832 54.5781 11.4816C54.4398 11.1312 54.2339 10.8115 53.9721 10.5407C53.7103 10.2699 53.3977 10.0533 53.0522 9.90334C52.7066 9.75338 52.3349 9.67295 51.9583 9.66666Z" fill="black"/>
<path d="M12.8889 22.5555H16.1111V25.7778H12.8889V22.5555Z" fill="black"/>
<path d="M22.5555 22.5555H25.7778V25.7778H22.5555V22.5555Z" fill="black"/>
<path d="M32.2222 22.5555H35.4445V25.7778H32.2222V22.5555Z" fill="black"/>
<path d="M41.8889 22.5555H45.1111V25.7778H41.8889V22.5555Z" fill="black"/>
<path d="M12.8889 30.6111H16.1111V33.8333H12.8889V30.6111Z" fill="black"/>
<path d="M22.5555 30.6111H25.7778V33.8333H22.5555V30.6111Z" fill="black"/>
<path d="M32.2222 30.6111H35.4445V33.8333H32.2222V30.6111Z" fill="black"/>
<path d="M41.8889 30.6111H45.1111V33.8333H41.8889V30.6111Z" fill="black"/>
<path d="M12.8889 38.6667H16.1111V41.8889H12.8889V38.6667Z" fill="black"/>
<path d="M22.5555 38.6667H25.7778V41.8889H22.5555V38.6667Z" fill="black"/>
<path d="M32.2222 38.6667H35.4445V41.8889H32.2222V38.6667Z" fill="black"/>
<path d="M41.8889 38.6667H45.1111V41.8889H41.8889V38.6667Z" fill="black"/>
<path d="M16.1111 16.1111C16.5384 16.1111 16.9482 15.9414 17.2503 15.6392C17.5525 15.3371 17.7222 14.9273 17.7222 14.5V4.83334C17.7222 4.40605 17.5525 3.99625 17.2503 3.69411C16.9482 3.39197 16.5384 3.22223 16.1111 3.22223C15.6838 3.22223 15.274 3.39197 14.9719 3.69411C14.6697 3.99625 14.5 4.40605 14.5 4.83334V14.5C14.5 14.9273 14.6697 15.3371 14.9719 15.6392C15.274 15.9414 15.6838 16.1111 16.1111 16.1111Z" fill="black"/>
<path d="M41.8889 16.1111C42.3162 16.1111 42.726 15.9414 43.0281 15.6392C43.3303 15.3371 43.5 14.9273 43.5 14.5V4.83334C43.5 4.40605 43.3303 3.99625 43.0281 3.69411C42.726 3.39197 42.3162 3.22223 41.8889 3.22223C41.4616 3.22223 41.0518 3.39197 40.7497 3.69411C40.4475 3.99625 40.2778 4.40605 40.2778 4.83334V14.5C40.2778 14.9273 40.4475 15.3371 40.7497 15.6392C41.0518 15.9414 41.4616 16.1111 41.8889 16.1111Z" fill="black"/>
<path d="M20.9445 9.66666H37.0556V12.8889H20.9445V9.66666Z" fill="black"/>
</g>
<defs>
<clipPath id="clip0_1_35">
<rect width="58" height="58" fill="white"/>
</clipPath>
</defs>
</svg>
