<svg width="58" height="58" viewBox="0 0 58 58" fill="none" xmlns="http://www.w3.org/2000/svg">
<path d="M21.75 7.55208C21.75 6.71833 22.4266 6.04166 23.2604 6.04166H34.7396C35.1402 6.04166 35.5243 6.2008 35.8076 6.48405C36.0908 6.76731 36.25 7.15149 36.25 7.55208C36.25 7.95267 36.0908 8.33685 35.8076 8.62011C35.5243 8.90336 35.1402 9.0625 34.7396 9.0625H23.2604C22.4266 9.0625 21.75 8.38583 21.75 7.55208ZM27.4896 32.3229C27.4896 32.7235 27.6487 33.1077 27.932 33.3909C28.2152 33.6742 28.5994 33.8333 29 33.8333C29.4006 33.8333 29.7847 33.6742 30.068 33.3909C30.3513 33.1077 30.5104 32.7235 30.5104 32.3229V20.8437C30.5104 20.4432 30.3513 20.059 30.068 19.7757C29.7847 19.4925 29.4006 19.3333 29 19.3333C28.5994 19.3333 28.2152 19.4925 27.932 19.7757C27.6487 20.059 27.4896 20.4432 27.4896 20.8437V32.3229ZM29 12.0833C17.6549 12.0833 8.45831 21.28 8.45831 32.625C8.45831 43.97 17.6549 53.1667 29 53.1667C40.345 53.1667 49.5416 43.97 49.5416 32.625C49.5416 21.28 40.345 12.0833 29 12.0833ZM11.4791 32.625C11.4791 22.9487 19.3236 15.1042 29 15.1042C38.6763 15.1042 46.5208 22.9487 46.5208 32.625C46.5208 42.3013 38.6763 50.1458 29 50.1458C19.3236 50.1458 11.4791 42.3013 11.4791 32.625ZM46.0798 12.5244C45.7965 12.2411 45.4122 12.0819 45.0116 12.0819C44.611 12.0819 44.2267 12.2411 43.9434 12.5244C43.6601 12.8077 43.501 13.1919 43.501 13.5925C43.501 13.9932 43.6601 14.3774 43.9434 14.6607L46.9643 17.6815C47.1045 17.8218 47.2711 17.9331 47.4544 18.009C47.6376 18.0849 47.8341 18.124 48.0324 18.124C48.2308 18.124 48.4272 18.0849 48.6105 18.009C48.7938 17.9331 48.9603 17.8218 49.1006 17.6815C49.2409 17.5413 49.3522 17.3747 49.4281 17.1915C49.504 17.0082 49.5431 16.8117 49.5431 16.6134C49.5431 16.415 49.504 16.2186 49.4281 16.0353C49.3522 15.852 49.2409 15.6855 49.1006 15.5452L46.0798 12.5244Z" fill="black"/>
</svg>
