<svg width="53" height="53" viewBox="0 0 53 53" fill="none" xmlns="http://www.w3.org/2000/svg">
<g clip-path="url(#clip0_7_101)">
<rect width="53" height="53" fill="white"/>
<path d="M31.0833 4.41667C40.8243 4.41667 48.75 12.3424 48.75 22.0833C48.75 31.8243 40.8243 39.75 31.0833 39.75C21.3424 39.75 13.4167 31.8243 13.4167 22.0833C13.4167 12.3424 21.3424 4.41667 31.0833 4.41667ZM31.0833 0C18.8867 0 9 9.88671 9 22.0833C9 34.28 18.8867 44.1667 31.0833 44.1667C43.28 44.1667 53.1667 34.28 53.1667 22.0833C53.1667 9.88671 43.28 0 31.0833 0ZM42.125 19.875H33.2917V11.0417H28.875V19.875H20.0417V24.2917H28.875V33.125H33.2917V24.2917H42.125V19.875Z" fill="#010101" fill-opacity="0.8"/>
</g>
<defs>
<clipPath id="clip0_7_101">
<rect width="53" height="53" fill="white"/>
</clipPath>
</defs>
</svg>
