<svg width="53" height="53" viewBox="0 0 53 53" fill="none" xmlns="http://www.w3.org/2000/svg">
<path d="M26.5 8.83332C36.2409 8.83332 44.1667 16.759 44.1667 26.5C44.1667 36.2409 36.2409 44.1667 26.5 44.1667C16.759 44.1667 8.83332 36.2409 8.83332 26.5C8.83332 16.759 16.759 8.83332 26.5 8.83332ZM26.5 4.41666C14.3034 4.41666 4.41666 14.3034 4.41666 26.5C4.41666 38.6966 14.3034 48.5833 26.5 48.5833C38.6966 48.5833 48.5833 38.6966 48.5833 26.5C48.5833 14.3034 38.6966 4.41666 26.5 4.41666ZM37.5417 24.2917H28.7083V15.4583H24.2917V24.2917H15.4583V28.7083H24.2917V37.5417H28.7083V28.7083H37.5417V24.2917Z" fill="white" fill-opacity="0.8"/>
</svg>
