<svg width="58" height="58" viewBox="0 0 58 58" fill="none" xmlns="http://www.w3.org/2000/svg">
<g clip-path="url(#clip0_1_17)">
<path d="M22.0833 45.0445C20.6704 45.0445 19.4653 44.5459 18.468 43.5486C17.4691 42.5497 16.9697 41.3446 16.9697 39.9332C16.9697 38.5219 17.4691 37.3168 18.468 36.3179C19.4669 35.319 20.672 34.8196 22.0833 34.8196C23.4947 34.8196 24.6998 35.319 25.6987 36.3179C26.6976 37.3168 27.197 38.5219 27.197 39.9332C27.197 41.3446 26.6976 42.5497 25.6987 43.5486C24.6998 44.5475 23.4947 45.0469 22.0833 45.0469M13.9029 58.0582C12.7912 58.0582 11.8632 57.6861 11.1189 56.9417C10.373 56.1958 10 55.267 10 54.1553V23.2945C10 22.1828 10.373 21.2548 11.1189 20.5105C11.8632 19.7646 12.7912 19.3916 13.9029 19.3916H18.1804V15.3026C18.1804 14.9272 18.3037 14.6162 18.5502 14.3697C18.7951 14.1232 19.1052 14 19.4806 14C19.856 14 20.1669 14.1232 20.4134 14.3697C20.6599 14.6162 20.7832 14.9272 20.7832 15.3026V19.3916H38.0696V15.2107C38.0696 14.866 38.1856 14.5784 38.4176 14.348C38.6496 14.1176 38.9364 14.0016 39.2779 14C39.6227 14 39.9103 14.1152 40.1407 14.3456C40.3711 14.576 40.4863 14.8636 40.4863 15.2083V19.3916H44.7638C45.8754 19.3916 46.8034 19.7646 47.5478 20.5105C48.2937 21.2548 48.6667 22.1828 48.6667 23.2945V54.1553C48.6667 55.267 48.2945 56.195 47.5502 56.9393C46.8042 57.6853 45.8754 58.0582 44.7638 58.0582H13.9029ZM13.9029 55.6416H44.7638C45.1343 55.6416 45.4751 55.4869 45.786 55.1776C46.0953 54.8666 46.25 54.5259 46.25 54.1553V32.9612H12.4167V54.1553C12.4167 54.5259 12.5713 54.8666 12.8807 55.1776C13.1916 55.4869 13.5324 55.6416 13.9029 55.6416ZM12.4167 30.5445H46.25V23.2945C46.25 22.9239 46.0953 22.5832 45.786 22.2722C45.4751 21.9629 45.1343 21.8082 44.7638 21.8082H13.9029C13.5324 21.8082 13.1916 21.9629 12.8807 22.2722C12.5713 22.5832 12.4167 22.9239 12.4167 23.2945V30.5445Z" fill="black"/>
</g>
<defs>
<clipPath id="clip0_1_17">
<rect width="58" height="58" fill="white"/>
</clipPath>
</defs>
</svg>
